<?xml version="1.0" encoding="UTF-8"?>
<svg width="144px" height="40px" viewBox="0 0 144 40" version="1.1" xmlns="http://www.w3.org/2000/svg" xmlns:xlink="http://www.w3.org/1999/xlink">
    <!-- Generator: Sketch 52.6 (67491) - http://www.bohemiancoding.com/sketch -->
    <title>Logo</title>
    <desc>Created with Sketch.</desc>
    <defs>
        <linearGradient x1="79.5107908%" y1="66.9666346%" x2="-12.1594445%" y2="106.17852%" id="linearGradient-1">
            <stop stop-color="#FAD961" offset="0%"></stop>
            <stop stop-color="#F76B1C" offset="100%"></stop>
        </linearGradient>
        <path d="M34.5132544,19.3696399 L31.4031159,1.37894737 C31.2653874,0.582160665 30.5740854,0 29.765332,0 L4.43214638,0 C3.61186938,0 2.91425165,0.598448753 2.7893763,1.40919668 L0.0197364127,19.3998892 C-0.135388241,20.406759 0.643669931,21.3147922 1.66239569,21.3147922 L12.6862184,21.3147922 C13.1145841,21.3147922 13.4618417,20.9675346 13.4618417,20.539169 L13.4618417,14.9281994 C13.4618417,14.4998338 13.8090993,14.1525762 14.2374649,14.1525762 L19.9214539,14.1525762 C20.3498195,14.1525762 20.6970771,14.4998338 20.6970771,14.9281994 L20.6970771,20.539169 C20.6970771,20.9675346 21.0443348,21.3147922 21.4727004,21.3147922 L32.8754705,21.3147922 C33.9066062,21.3147922 34.6888777,20.3857064 34.5132544,19.3696399" id="path-2"></path>
        <linearGradient x1="50%" y1="0%" x2="54.2097249%" y2="123.506945%" id="linearGradient-4">
            <stop stop-color="#FAD961" offset="0%"></stop>
            <stop stop-color="#F76B1C" offset="100%"></stop>
        </linearGradient>
        <path d="M24.2883266,0 L16.6228419,0 C16.194587,0 15.8472186,0.347257618 15.8472186,0.775623269 L15.8472186,4.63556787 C15.8472186,5.06393352 15.499961,5.41119114 15.0715953,5.41119114 L11.1565815,5.41119114 C10.7282158,5.41119114 10.3809582,5.06393352 10.3809582,4.63556787 L10.3809582,0.775623269 C10.3809582,0.347257618 10.0337006,0 9.60533496,0 L1.66250947,0 C0.631373736,0 -0.150897732,0.929196676 0.024725537,1.94515235 L2.23403302,14.7248753 C2.37176155,15.521662 3.06306349,16.1037119 3.87170615,16.1037119 L22.3209028,16.1037119 C23.1411798,16.1037119 23.8387976,15.505374 23.9635621,14.694626 L25.9309859,1.91501385 C26.0859998,0.908144044 25.3070524,0 24.2883266,0" id="path-5"></path>
    </defs>
    <g id="Logo" stroke="none" stroke-width="1" fill="none" fill-rule="evenodd">
        <g id="Logo-Full-Color--Dark-Bkg-Copy" transform="translate(-544.000000, -332.000000)">
            <g id="Logo" transform="translate(544.000000, 332.000000)">
                <g id="Icon">
                    <g id="bottom" transform="translate(0.000000, 18.614958)">
                        <mask id="mask-3" fill="white">
                            <use xlink:href="#path-2"></use>
                        </mask>
                        <use id="Mask" fill="url(#linearGradient-1)" xlink:href="#path-2"></use>
                        <path d="M26.3610348,4.43213296 C26.9447405,4.43213296 27.4438257,4.85227632 27.5432429,5.427504 L30.0277008,21.6066482 C30.1544717,22.3400795 4.20943538,22.333441 4.32132964,21.6066482 L6.88887392,5.449259 C6.97901319,4.8641136 7.48257735,4.43213296 8.07460117,4.43213296 L26.3610348,4.43213296 Z" id="Fill-3" fill="url(#linearGradient-4)" opacity="0.696218297" mask="url(#mask-3)"></path>
                    </g>
                    <g id="top" transform="translate(4.321330, 0.000000)">
                        <mask id="mask-6" fill="white">
                            <use xlink:href="#path-5"></use>
                        </mask>
                        <use id="Mask" fill="url(#linearGradient-1)" xlink:href="#path-5"></use>
                        <path d="M7.01102524,11.8559557 C6.47240267,11.8559557 6.01193867,11.4714894 5.92012633,10.9451081 L4.0061278,-0.266398833 C3.88907445,-0.937549699 4.41020544,-1.55124654 5.09695291,-1.55124654 L20.9557152,-1.53126571 C21.6342704,-1.53126571 22.1531135,-0.931474942 22.0498615,-0.266398833 L20.3938551,10.9251272 C20.3106778,11.4606573 19.846007,11.8559557 19.299635,11.8559557 L7.01102524,11.8559557 Z" id="Fill-1" fill="url(#linearGradient-4)" mask="url(#mask-6)"></path>
                    </g>
                </g>
                <g id="Logotype" transform="translate(44.099723, 10.193906)" fill="#AAB9C8">
                    <path d="M14.8031025,14.2163989 C14.8031025,13.6525208 14.5592244,13.4329086 13.9334072,13.4329086 L8.14969529,13.4329086 C6.8567313,13.4329086 6.22825485,12.9642105 6.22825485,12.0003324 L6.22825485,6.67224377 C6.22825485,5.67290859 6.8567313,5.18703601 8.14969529,5.18703601 L13.9334072,5.18703601 C14.5592244,5.18703601 14.8031025,4.96731302 14.8031025,4.4033241 L14.8031025,0.783490305 C14.8031025,0.219722992 14.5592244,0 13.9334072,0 L6.91235457,0 C4.51047091,0 2.79279778,0.420277008 1.66116343,1.28498615 C0.543379501,2.13894737 0,3.4333518 0,5.24199446 L0,13.446759 C0,17.005097 2.19645429,18.6623823 6.91235457,18.6623823 L13.9334072,18.6623823 C14.5592244,18.6623823 14.8031025,18.4427701 14.8031025,17.878892 L14.8031025,14.2163989 Z" id="Fill-1"></path>
                    <path d="M30.6003324,18.6623823 L35.0603878,18.6623823 C35.6863158,18.6623823 35.9301939,18.4427701 35.9301939,17.878892 L35.9301939,0.783490305 C35.9301939,0.219722992 35.6863158,0 35.0603878,0 L30.6003324,0 C29.9745152,0 29.7306371,0.219722992 29.7306371,0.783490305 L29.7306371,6.67457064 L24.5927978,6.67457064 L24.5927978,0.783490305 C24.5927978,0.219722992 24.3490305,0 23.7232133,0 L19.2630471,0 C18.6372299,0 18.3933518,0.219722992 18.3933518,0.783490305 L18.3933518,17.878892 C18.3933518,18.4427701 18.6372299,18.6623823 19.2630471,18.6623823 L23.7232133,18.6623823 C24.3490305,18.6623823 24.5927978,18.4427701 24.5927978,17.878892 L24.5927978,11.8559557 L29.7306371,11.8559557 L29.7306371,17.878892 C29.7306371,18.4427701 29.9745152,18.6623823 30.6003324,18.6623823" id="Fill-4"></path>
                    <path d="M45.3873684,0 L40.8698061,0 C40.2438781,0 40,0.219612188 40,0.783379501 L40,13.6517452 C40,15.420277 40.5410526,16.6468698 41.7027147,17.5116898 C43.1003878,18.5523546 45.3975623,19.0581717 48.7253186,19.0581717 C52.052964,19.0581717 54.3501385,18.5523546 55.7478116,17.5116898 C56.9094737,16.6468698 57.4505263,15.420277 57.4505263,13.6517452 L57.4505263,0.783379501 C57.4505263,0.219612188 57.2066482,0 56.580831,0 L52.2069806,0 C51.5648753,0 51.3372853,0.205096953 51.3372853,0.783379501 L51.3372853,12.3368421 C51.3372853,13.8142936 49.948144,14.1244321 48.7828255,14.1244321 C47.8248199,14.1244321 47.1562327,13.9489197 46.7389474,13.5880332 C46.4147368,13.30759 46.2570637,12.9294183 46.2570637,12.432133 L46.2570637,0.783379501 C46.2570637,0.219612188 46.0131856,0 45.3873684,0" id="Fill-7"></path>
                    <path d="M77.9646537,11.3550139 C78.619169,9.85506925 78.8396676,9.34969529 78.8396676,7.74814404 L78.8396676,0.783379501 C78.8396676,0.20498615 78.6120776,0 77.9699723,0 L73.45241,0 C72.826482,0 72.5827147,0.219612188 72.5827147,0.783379501 L72.5827147,8.03833795 C72.5827147,8.43612188 72.4907479,8.76886427 72.3424931,9.17684211 L70.9900277,12.8967313 C70.8720222,13.2486427 70.7185596,13.4545152 70.2870914,13.4545152 L69.9706371,13.4545152 C69.5392798,13.4545152 69.3857064,13.2486427 69.2663712,12.8928532 L67.9154571,9.20354571 C67.7669806,8.79534626 67.6751247,8.46271468 67.6751247,8.06481994 L67.6751247,0.783379501 C67.6751247,0.418614958 67.5664266,0 66.7190028,0 L62.1438227,0 C61.5180055,0 61.2742382,0.219612188 61.2742382,0.783379501 L61.2742382,7.74814404 C61.2742382,9.34969529 61.4947368,9.85506925 62.1493629,11.3550139 L65.0009972,17.8914127 C65.2493075,18.4606094 65.5934626,18.6622715 66.3162327,18.6622715 L73.7976731,18.6622715 C74.5204432,18.6622715 74.8645983,18.4606094 75.1127978,17.8914127 L77.9646537,11.3550139 Z" id="Fill-9"></path>
                    <path d="M88.0753463,9.5501385 L89.5079224,5.30493075 C89.6750139,4.93761773 89.9032687,4.75911357 90.2059834,4.75911357 L90.9253186,4.75911357 C91.2280332,4.75911357 91.4563989,4.93761773 91.6233795,5.30493075 L91.6295845,5.32066482 L93.0559557,9.5501385 L88.0753463,9.5501385 Z M94.2344598,18.6622715 L98.5793906,18.6622715 C99.2053186,18.6622715 99.4490859,18.4426593 99.4490859,17.8787812 L99.4490859,10.9140166 C99.4490859,9.87700831 99.0966205,8.55612188 98.3399446,6.75745152 L95.8363435,0.768310249 C95.6340166,0.235457064 95.2382271,0 94.5510249,0 L86.8105263,0 C86.0937396,0 85.701385,0.228254848 85.4983934,0.763213296 L82.9929086,6.75700831 C82.2361219,8.55612188 81.8836565,9.87700831 81.8836565,10.9140166 L81.8836565,17.8787812 C81.8836565,18.4426593 82.1274238,18.6622715 82.753241,18.6622715 L86.9832687,18.6622715 C87.6090859,18.6622715 87.8528532,18.4426593 87.8528532,17.8787812 L87.8528532,14.019169 L93.2784488,14.019169 L93.2784488,17.8787812 C93.2784488,18.3490305 93.4409972,18.6622715 94.2344598,18.6622715 Z" id="Fill-11"></path>
                </g>
            </g>
        </g>
    </g>
</svg>